<svg xmlns="http://www.w3.org/2000/svg" width="24" height="24" viewBox="0 0 24 24">
  <path fill="#333" fill-rule="evenodd" d="M10.426.004c.404-.042.797.286 1.105.497a9.218 9.218 0 0 1 1.9 1.731c.56.676.978 1.383 1.07 2.246a5.713 5.713 0 0 1-.27 2.122 8.646 8.646 0 0 1-.99 2.215l-1.116-.41a7.495 7.495 0 0 0 .92-1.926c.186-.594.35-1.26.284-1.885-.077-.727-.5-1.304-.981-1.842a8.168 8.168 0 0 0-1.68-1.442c-.171.328-.262.838-.69.93-.4.086-.726-.288-1.032-.48a7.375 7.375 0 0 0-.669 1.815 4.525 4.525 0 0 0-.139 1.62c.16 1.058 1.048 1.915 1.87 2.561a7.875 7.875 0 0 0 2.14 1.185c.819.303 1.644.591 2.455.91a8.886 8.886 0 0 1 .853-2.722c.367-.722.83-1.46 1.489-1.97.62-.484 1.355-.701 2.125-.83a9.214 9.214 0 0 1 2.748-.035c.369.05.834.048 1.082.373.248.325.102.744 0 1.09.179.028.357.057.535.092.956.226.458 1.39.236 1.966-.528 1.422-1.422 3.003-2.932 3.61a6.387 6.387 0 0 1-2.102.377 9.29 9.29 0 0 1-2.454-.222l.07-1.16a7.98 7.98 0 0 0 2.789.216c.775-.078 1.59-.257 2.14-.85a7.524 7.524 0 0 0 1.565-2.899c-.36-.052-.877.02-1.111-.323-.234-.344.043-.781.137-1.127a8.033 8.033 0 0 0-2.266-.022 4.28 4.28 0 0 0-1.521.427c-.458.28-.837.667-1.1 1.126a7.204 7.204 0 0 0-1.163 3.317l-.059.956a96.463 96.463 0 0 0-.096 1.914 6.417 6.417 0 0 1 1.455-.145 9.26 9.26 0 0 1 1.5.09c.84.12 1.711.327 2.425.8.64.43 1.07 1.033 1.426 1.697.431.808.728 1.678.881 2.576.059.333.184.715-.064 1.036-.248.322-.681.304-1.054.322.07.382.148.81-.143 1.1-.29.29-.827.25-1.21.25a9.524 9.524 0 0 1-2.641-.33c-.786-.215-1.501-.514-2.077-1.093-.525-.523-.865-1.208-1.136-1.881a8.5 8.5 0 0 1-.58-2.433l1.152-.3c.045.725.195 1.44.446 2.126.217.593.497 1.22.95 1.69.453.47 1.068.674 1.701.833a8.27 8.27 0 0 0 2.386.242c-.057-.36-.27-.854 0-1.146.27-.292.769-.176 1.125-.197a7.363 7.363 0 0 0-.713-2.182 3.913 3.913 0 0 0-.822-1.163c-.41-.337-.9-.569-1.426-.675a7.484 7.484 0 0 0-3.636-.047l-2.873.738c.475.801.795 1.68.947 2.591.16.837.248 1.742 0 2.564a4.406 4.406 0 0 1-1.203 1.844 8.997 8.997 0 0 1-2.203 1.596c-.326.168-.695.432-1.102.311-.406-.12-.53-.528-.668-.874-.359.18-.746.41-1.145.194-.358-.192-.476-.681-.599-1.027a8.808 8.808 0 0 1-.496-2.562c-.034-.783.052-1.543.448-2.246a5.69 5.69 0 0 1 1.485-1.595 9.095 9.095 0 0 1 2.224-1.294l.647.971a7.894 7.894 0 0 0-2.372 1.405c-.599.516-1.137 1.118-1.237 1.921a7.429 7.429 0 0 0 .494 3.24c.351-.175.763-.56 1.175-.332.324.178.367.64.49.95a7.888 7.888 0 0 0 1.696-1.135c.38-.313.711-.678.982-1.083.585-.956.384-2.212.1-3.233a7.33 7.33 0 0 0-.995-2.142c-.486-.724-.987-1.441-1.456-2.176-.348.3-.662.626-1.031.906a8.774 8.774 0 0 1-1.29.807c-.773.399-1.643.756-2.535.756-.79.007-1.505-.243-2.198-.589A9.004 9.004 0 0 1 .63 13.325C.373 13.08.01 12.806 0 12.426c0-.411.357-.658.66-.888-.29-.273-.635-.561-.548-.995.077-.382.501-.632.796-.85A9.363 9.363 0 0 1 3.226 8.45c.802-.292 1.603-.474 2.458-.301a6.046 6.046 0 0 1 2.042.9c.709.45 1.35.995 1.903 1.617l-.747.906a7.825 7.825 0 0 0-1.648-1.478c-.515-.343-1.106-.687-1.722-.817-.715-.148-1.38.045-2.04.308a8.303 8.303 0 0 0-2.006 1.13c.269.254.733.516.697.919-.036.402-.503.584-.79.808.494.472 1.05.878 1.655 1.208a5.08 5.08 0 0 0 1.426.586c1.072.204 2.197-.334 3.074-.881a7.842 7.842 0 0 0 1.858-1.607c.562-.672 1.152-1.329 1.687-2.02a5.528 5.528 0 0 1-1.266-.71 8.849 8.849 0 0 1-1.12-.872c-.615-.57-1.214-1.258-1.507-2.013-.292-.755-.267-1.545-.137-2.33.14-.852.41-1.68.803-2.456.164-.308.32-.73.695-.862.394-.139.752.126 1.07.331.176-.354.362-.762.815-.813zm1.78 10.174l-1.56 1.868 1.349 2.015 2.395-.622.133-2.397-2.318-.864z"/>
</svg>
