<?xml version="1.0" encoding="utf-8"?><svg xmlns="http://www.w3.org/2000/svg" xmlns:xlink="http://www.w3.org/1999/xlink"><symbol viewBox="0 0 16 16" id="ico-clock" xmlns="http://www.w3.org/2000/svg"><path fill-rule="evenodd" d="M8.667 8c0 .18-.074.347-.194.473L5.807 11.14a.683.683 0 01-.474.193.683.683 0 01-.473-.193.672.672 0 010-.947l2.473-2.466V3.333c0-.366.3-.666.667-.666.367 0 .667.3.667.666V8zM8 1.333A6.67 6.67 0 001.333 8 6.67 6.67 0 008 14.667 6.67 6.67 0 0014.667 8 6.67 6.67 0 008 1.333z"/></symbol><symbol viewBox="0 0 16 16" id="ico-flag" xmlns="http://www.w3.org/2000/svg"><path fill-rule="evenodd" d="M12.872 6.343a.67.67 0 010-.686l1.189-1.98a.667.667 0 00-.572-1.01H5.333V2A.666.666 0 104 2v9.778l-1.866 2.488a.667.667 0 00.532 1.067h4a.668.668 0 00.534-1.067l-1.867-2.488V9.333h8.156a.667.667 0 00.572-1.01l-1.189-1.98z"/></symbol><symbol viewBox="0 0 16 16" id="ico-house" xmlns="http://www.w3.org/2000/svg"><path fill-rule="evenodd" d="M13.323 6.667a.571.571 0 00-.157-.32L8.316 1.47a.433.433 0 00-.632 0l-4.85 4.877a.572.572 0 00-.157.32h-.01v6.666c0 .734.6 1.334 1.333 1.334h2.03A.666.666 0 006.699 14v-2.667c0-.733.6-1.333 1.333-1.333s1.333.6 1.333 1.333V14c0 .369.298.667.667.667H12c.733 0 1.333-.6 1.333-1.334V6.667h-.011z"/></symbol><symbol viewBox="0 0 16 16" id="ico-message" xmlns="http://www.w3.org/2000/svg"><path fill-rule="evenodd" d="M12 5.333H4A.666.666 0 114 4h8a.666.666 0 110 1.333M9.333 8H4a.666.666 0 110-1.333h5.333a.666.666 0 110 1.333m3.664-6H3.003c-.921 0-1.67.749-1.67 1.669v5.996c0 .92.749 1.668 1.67 1.668h.33v2.334a.333.333 0 00.547.256l3.103-2.59h6.014a1.67 1.67 0 001.67-1.668V3.669A1.67 1.67 0 0012.997 2"/></symbol><symbol viewBox="0 0 16 16" id="ico-place" xmlns="http://www.w3.org/2000/svg"><path fill-rule="evenodd" d="M5.667 5.667a2.333 2.333 0 114.666 0 2.333 2.333 0 01-4.666 0zm-2.334-.334c0 4 3.151 8.076 4.196 9.137a.661.661 0 00.942 0c1.057-1.073 4.196-5.137 4.196-9.137 0-2.666-2-4-4.657-4-2.677 0-4.677 1.334-4.677 4z"/></symbol></svg>